<?xml version="1.0" encoding="utf-8"?>
<!-- Generator: Adobe Illustrator 23.0.2, SVG Export Plug-In . SVG Version: 6.00 Build 0)  -->
<svg version="1.1" id="Layer_1" xmlns="http://www.w3.org/2000/svg" xmlns:xlink="http://www.w3.org/1999/xlink" x="0px" y="0px"
	 viewBox="0 0 1024 1024" style="enable-background:new 0 0 1024 1024;" xml:space="preserve">
<style type="text/css">
	.st0{fill:#222121;}
	.st1{display:none;}
	.st2{display:inline;}
</style>
<g>
	<g>
		<path class="st0" d="M351.41,416.88c-0.13,67.35-0.16,134.71-1.48,202.05c-0.38,19.15-0.86,38.29-1.48,57.43
			c-0.32,9.81,8.85,19.19,18.75,18.75c10.43-0.47,18.41-8.24,18.75-18.75c2.16-67.37,2.66-134.77,2.84-202.17
			c0.05-19.1,0.08-38.2,0.12-57.31c0.02-9.81-8.64-19.2-18.75-18.75C359.99,398.59,351.43,406.37,351.41,416.88L351.41,416.88z"/>
	</g>
</g>
<g>
	<g>
		<path class="st0" d="M353.54,454.95c25.86,48.6,52.94,96.55,81.2,143.79c5.04,8.42,17.08,12.25,25.65,6.73
			c8.46-5.46,12.12-16.65,6.73-25.65c-28.27-47.24-55.34-95.19-81.2-143.79c-4.61-8.67-17.38-12.06-25.65-6.73
			C351.45,434.98,348.61,445.67,353.54,454.95L353.54,454.95z"/>
	</g>
</g>
<g>
	<g>
		<path class="st0" d="M352.45,456.92c-0.35,0.94-0.72,1.88-1.09,2.81c0.84-1.94,0.98-2.28,0.43-1.02
			c-0.73,1.59-1.43,3.18-2.19,4.75c-1.3,2.68-2.7,5.32-4.17,7.92c-3.07,5.42-6.46,10.64-10.06,15.71c-1.01,1.43-2.04,2.84-3.09,4.25
			c-0.57,0.77-3.36,4.38-0.72,0.99c-1.86,2.38-3.75,4.74-5.66,7.08c-4.18,5.09-8.47,10.09-12.78,15.06
			c-17.5,20.2-35.68,40.53-47.81,64.55c-4.42,8.74-2.6,20.73,6.73,25.65c8.53,4.51,20.93,2.62,25.65-6.73
			c2.95-5.83,6.23-11.47,9.82-16.92c1.94-2.94,3.96-5.82,6.03-8.66c0.89-1.22,1.8-2.43,2.71-3.64c3.05-4.06-2.4,2.97,0.78-0.99
			c8.27-10.29,16.97-20.2,25.59-30.2c18.6-21.6,35.75-43.79,45.99-70.65c3.5-9.18-3.87-20.96-13.1-23.06
			C364.82,441.38,356.2,447.08,352.45,456.92L352.45,456.92z"/>
	</g>
</g>
<g>
	<g>
		<path class="st0" d="M350.45,686.17c33.42,51.23,63.38,104.65,89.67,159.88c4.23,8.88,17.64,11.89,25.65,6.73
			c9.13-5.88,11.25-16.15,6.73-25.65c-26.29-55.23-56.25-108.65-89.67-159.88c-5.35-8.2-16.85-12.4-25.65-6.73
			C348.98,665.79,344.71,677.38,350.45,686.17L350.45,686.17z"/>
	</g>
</g>
<g>
	<g>
		<path class="st0" d="M347.18,671.04c-33.06,53.67-64.14,108.54-93.18,164.49c-4.52,8.7-2.53,20.76,6.73,25.65
			c8.61,4.55,20.83,2.57,25.65-6.73c29.04-55.95,60.13-110.81,93.18-164.49c5.15-8.36,2.08-21-6.73-25.65
			C363.67,659.47,352.67,662.11,347.18,671.04L347.18,671.04z"/>
	</g>
</g>
<g>
	<g>
		<path class="st0" d="M331.59,223.5c-24.18,19.56-39.93,49.46-44.22,80.09c-2.35,16.81-1.96,33.62,2.19,50.17
			c4.22,16.86,12.37,34.59,26.03,45.84c15.47,12.75,34.61,16.61,54.21,17.39c9.43,0.37,18.97,0.54,28.3-1.05
			c11.13-1.89,20.44-8.1,26.81-17.36c5.15-7.48,7.3-16.79,9.11-25.54c2.06-9.94,3.62-20,4.63-30.1c1.91-19.05,0.93-39.08-4.96-57.4
			c-11.73-36.5-46.55-69.73-87.21-65.78c-9.73,0.95-19.23,7.95-18.75,18.75c0.42,9.35,8.3,19.77,18.75,18.75
			c3.09-0.3,6.17-0.4,9.28-0.18c0.21,0.01,2.02,0.31,2.11,0.19c-0.12,0.15-3.61-0.69-1.5-0.16c1.59,0.4,3.22,0.65,4.81,1.08
			c1.59,0.43,3.16,0.94,4.7,1.51c0.39,0.14,1.73,0.43,1.98,0.76c0.04,0.05-3.19-1.57-1.23-0.45c2.91,1.66,5.9,3.09,8.69,4.97
			c0.58,0.39,3.96,2.97,2.19,1.52c-1.82-1.5,2.12,1.88,2.55,2.28c2.34,2.14,4.55,4.43,6.62,6.83c0.48,0.56,0.93,1.14,1.41,1.69
			c-2.51-2.81-0.78-1.07-0.25-0.3c0.84,1.2,1.69,2.4,2.49,3.63c1.86,2.88,3.44,5.88,4.99,8.94c1.63,3.22-0.83-2.52,0.4,0.86
			c0.62,1.69,1.24,3.37,1.79,5.08c1.28,3.97,2.29,8.02,3.07,12.11c0.2,1.03,0.88,5.24,0.44,2.06c0.29,2.06,0.46,4.15,0.62,6.23
			c0.31,4.18,0.42,8.38,0.35,12.57c-0.06,3.62-0.24,7.23-0.53,10.84c-0.17,2.11-0.39,4.22-0.62,6.33c-0.02,0.15-0.37,3.13-0.12,1.12
			c0.24-1.91-0.25,1.68-0.3,2.01c-1.14,7.49-2.52,15.01-4.4,22.36c-0.44,1.71-0.96,3.39-1.49,5.07c-1.05,3.3,1.33-1.92-0.48,0.97
			c-0.38,0.61-0.8,1.24-1.14,1.87c-0.97,1.79,0.51-0.75,0.69-0.94c-1.53,1.56-1.19,0.17,0.34-0.03c-1.58,0.21-1.55,0.88,0.29,0.2
			c-1.49,0.56-3.05,0.78-4.56,1.24c0.26-0.08,3.22-0.23,1.01-0.13c-0.81,0.04-1.62,0.13-2.43,0.18c-3.74,0.2-7.5,0.13-11.25,0.09
			c-3.49-0.04-6.98-0.12-10.47-0.33c-1.61-0.09-3.22-0.21-4.82-0.36c-0.8-0.07-1.6-0.17-2.4-0.24c2.67,0.26,1.33,0.2-0.54-0.12
			c-3.1-0.54-6.17-1.24-9.17-2.19c-1.31-0.41-5.35-2.23-2.04-0.6c-1.63-0.8-3.24-1.6-4.79-2.55c-0.67-0.41-1.32-0.83-1.97-1.26
			c-0.29-0.19-2.19-1.81-0.62-0.43c1.63,1.43-0.34-0.39-0.52-0.57c-0.74-0.75-1.52-1.46-2.24-2.23c-0.91-0.97-2.89-3.69-1.09-1.08
			c-1.05-1.53-2.1-3.05-3.05-4.65c-0.95-1.6-1.84-3.24-2.66-4.91c-0.59-1.19-1.9-4.39-0.71-1.35c-1.23-3.15-2.36-6.33-3.3-9.58
			c-0.79-2.73-1.46-5.49-2.01-8.28c-0.32-1.63-0.57-3.26-0.85-4.89c-0.38-2.2,0.26,1.43,0.2,1.47c0.16-0.11-0.26-2.53-0.29-2.82
			c-0.57-6.37-0.56-12.79-0.02-19.16c0.06-0.71,0.14-1.42,0.2-2.13c0.26-2.95,0.38,0.33-0.15,0.75c0.57-0.45,0.66-4.11,0.81-4.92
			c0.66-3.5,1.47-6.97,2.45-10.4c0.98-3.43,2.11-6.8,3.4-10.12c0.18-0.45,0.43-1.66,0.79-1.98c-0.73,0.66-1.29,2.87-0.2,0.56
			c0.81-1.72,1.61-3.43,2.48-5.12c1.63-3.16,3.41-6.23,5.34-9.22c0.9-1.39,1.83-2.76,2.79-4.11c0.41-0.58,0.85-1.14,1.26-1.72
			c1.51-2.16-2.05,2.42-0.32,0.43c4.86-5.59,9.8-10.84,15.58-15.52c7.66-6.19,6.93-20.16,0-26.52
			C349.97,216.04,339.76,216.9,331.59,223.5L331.59,223.5z"/>
	</g>
</g>
<g>
	<g>
		<path class="st0" d="M268.26,63.02c73.46-0.28,146.92-0.85,220.37-1.73c73.12-0.88,146.24-2.06,219.35-3.55
			c41.54-0.84,83.08-1.79,124.62-2.82c7.84-0.2,15.37-6.76,15-15c-0.36-7.96-6.6-15.21-15-15c-73.44,1.83-146.88,3.37-220.33,4.59
			c-73.12,1.22-146.24,2.14-219.37,2.75c-41.55,0.35-83.1,0.6-124.65,0.76c-7.85,0.03-15.36,6.88-15,15
			C253.62,56.12,259.85,63.05,268.26,63.02L268.26,63.02z"/>
	</g>
</g>
<g>
	<g>
		<path class="st0" d="M761.78,47.04c-3.39,26.58-3.78,53.39-6.2,80.05c-2.45,26.98-4.03,54.05-5.3,81.11
			c-2.53,54.15-3.52,108.41-4.37,162.61c-0.42,26.67,0.26,53.32,0.08,79.99c-0.18,26.4-0.4,52.59,0.89,78.97
			c1.31,26.71,1.38,53.47,2.52,80.18c1.16,27.15,2.36,54.3,3.99,81.42c1.85,30.89,5.29,60.05,7.44,90.31
			c2.15,30.32,4.23,60.65,7.86,90.84c0.93,7.76,6.23,15.39,15,15c7.33-0.33,16-6.66,15-15c-3.19-26.61-5.2-53.32-7.09-80.05
			c-1.95-27.56-4.97-52.87-6.86-80.25c-3.75-54.27-5.4-108.6-7.09-162.96c-0.82-26.49-2.25-52.77-1.88-79.29
			c0.37-26.57-0.31-53.14-0.09-79.71c0.45-53.75,1.61-107.58,3.72-161.29c1.19-30.37,2.86-60.72,5.23-91.02
			c2.36-30.26,3.33-60.8,7.17-90.91c1-7.81-7.61-15.33-15-15C767.8,32.44,762.85,38.66,761.78,47.04L761.78,47.04z"/>
	</g>
</g>
<g>
	<g>
		<path class="st0" d="M111.69,909.21c49.49,16.11,102.08,19.23,153.79,19.17c52.22-0.07,104.39-1.49,156.62-0.93
			c104.79,1.12,209.82,4.83,314.43-3.43c59.21-4.68,118.24-13.16,175.85-27.78c16.67-4.23,12.73-29.03-3.99-29.46
			c-52.35-1.36-104.41,4.79-156.33,10.67c-52.52,5.95-105.12,10.27-157.91,12.85c-52.61,2.57-105.27,3.81-157.92,4.95
			c-52.76,1.14-105.52,2.32-158.28,2.82c-29.87,0.28-59.74,0.34-89.61,0.05c-14.6-0.14-29.2-0.37-43.8-0.71
			c-3.98-0.09-7.96-0.19-11.95-0.29c-1.33-0.04-2.66-0.04-3.98-0.11c-1.57-0.08-3.25-0.55-0.81,0.02c-1.21-0.28-2.43-0.63-3.64-0.9
			c-2.92-0.66,1.81,1.22-0.84-0.37c-2.52-1.51,0.25,0.08,0.37,0.42c-1.74-1.93-1.19-0.81,1.66,3.37c0.29,1.32,0.26,2.63-0.08,3.94
			c-4.82,3.67-9.64,7.34-14.46,11.01c103.62,9.85,207.98,8.36,311.95,8.77c104.58,0.41,209.15,0.82,313.73,1.23
			c58.22,0.23,116.95,2.09,174.46-8.62c-3.85-9.14-7.71-18.28-11.56-27.42c-9.56,5.03-22.03,7.46-33.64,9.68
			c-12.72,2.44-25.5,4.56-38.32,6.4c-25.09,3.6-51.41,6.07-77.15,7.79c-52.47,3.5-105.08,3.91-157.64,4.09
			c-108,0.38-216.01,0.68-324.01,1.02c-28.1,0.09-56.38,1.13-84.46-0.16c-12.82-0.59-20.19-1.23-32.4-4.75
			c-2.63-0.76-5.21-1.63-7.76-2.6c-2.59-0.98,3.04,1.51-1.18-0.49c-1.33-0.63-2.65-1.27-3.96-1.96c-2.61-1.39-5.07-2.97-7.52-4.62
			c-2.43-1.63-1.04-0.77-0.51-0.34c-1.56-1.26-3.03-2.62-4.48-4.01c1.46,3.54,2.93,7.07,4.39,10.61c-0.01-0.22-0.02-0.43-0.03-0.65
			c-1.46,3.54-2.93,7.07-4.39,10.61c0.11-0.1,0.23-0.19,0.34-0.29c-3.54,1.46-7.07,2.93-10.61,4.39c-1.9-0.44-3.8-0.88-5.7-1.32
			c-1.79-1.79-3.59-3.59-5.38-5.38c-0.32-0.79-0.64-1.58-0.96-2.38c0.5-3.85,1.01-7.71,1.51-11.56c-0.12,0.21-0.23,0.43-0.35,0.64
			c1.79-1.79,3.59-3.59,5.38-5.38c-0.38,0.22-0.75,0.44-1.13,0.66c2.52-0.68,5.05-1.37,7.57-2.05c3.86,1.57,4.62,1.68,2.29,0.32
			c-1.03-0.74-2.06-1.49-3.08-2.23c-1.8-1.3-3.6-2.6-5.4-3.9c-3.86-2.79-7.71-5.57-11.57-8.36c-2.52,9.32-5.05,18.63-7.57,27.95
			c93.56,10.11,187.73,12.88,281.78,12.79c94.08-0.09,188.28-1.76,282.31-4.9c52.75-1.76,105.49-4.62,158-10
			c5.42-0.56,10.07-2.51,12.95-7.43c2.45-4.18,3.16-11.04,0-15.14c-8.13-10.55-18.57-14-31.54-14.76
			c-12.23-0.72-24.55-0.71-36.8-0.58c-24.61,0.26-49.19,1.65-73.74,3.29c-49.58,3.31-98.99,6.5-148.71,6.65
			c-49.36,0.15-98.73-1.17-148.09-0.18c-24.49,0.5-48.97,1.58-73.38,3.66c-22.35,1.9-44.64,4.46-66.99,6.31
			c-24.81,2.05-49.78,3.3-74.66,1.64c-22.66-1.51-47.65-6.29-68.66-15.35c-2.52,9.32-5.05,18.63-7.57,27.95
			c121.21,2.24,242.41,4.47,363.62,6.71c34.2,0.63,68.41,1.26,102.61,1.89c-4.82-6.33-9.64-12.66-14.46-18.99
			c0.16-0.4,1.64-3.4,0.88-1.72c-0.61,0.59-0.59,0.62,0.08,0.11c0.88-0.6,0.69-0.49-0.58,0.32c-0.08-0.48,2.47-0.36,0.01-0.06
			c3.94-0.48-2.27-0.55,1.62,0.14c-7.7-1.36-16.54,2.07-18.45,10.48c-1.67,7.31,2.21,16.99,10.48,18.45
			c15.72,2.79,29.13-4.88,34.89-19.73c3.65-9.4-5.57-18.82-14.46-18.99c-121.21-2.24-242.41-4.47-363.62-6.71
			c-34.2-0.63-68.41-1.26-102.61-1.89c-6.32-0.12-13.03,4.72-14.46,11.01c-1.35,5.94,0.71,14.27,6.89,16.94
			c85.59,36.9,179.93,12.51,269.26,8.74c49.32-2.08,98.7-1.07,148.04-0.79c48.74,0.28,97.27-1,145.89-4.35
			c27.51-1.89,55.02-3.96,82.58-4.96c13.76-0.5,27.53-0.73,41.3-0.54c6.36,0.09,12.75,0.18,19.1,0.55c0.94,0.06,1.89,0.12,2.83,0.21
			c-3.03-0.28,0.96,0.2,1.63,0.36c-0.11-0.03,4.19,0.89,2.11,0.58c-0.95-0.4-0.75-0.25,0.6,0.46c-0.73-0.37-1.24-0.94-1.53-1.7
			c4.32-7.52,8.63-15.05,12.95-22.57c-93.6,9.59-187.74,11.11-281.74,12.9c-94.11,1.8-188.28,3.38-282.38,0.11
			c-52.77-1.83-105.48-5.22-157.98-10.9c-6.21-0.67-13.12,5.11-14.46,11.01c-1.58,6.96,1.26,12.87,6.89,16.94
			c6.17,4.46,12.29,9,18.51,13.38c8.71,6.14,22.3,7.54,28.48-3.2c5.41-9.42,0.56-21.16-9.79-24.33
			c-11.71-3.59-23.38,6.89-20.01,19.11c1.96,7.13,10.36,12.61,16.13,16.5c5.57,3.75,11.68,6.55,17.92,8.99
			c11.64,4.55,24.05,6.56,36.43,7.81c27.72,2.8,56.07,1.17,83.88,1.08c30.6-0.1,61.2-0.19,91.8-0.29
			c61.87-0.19,123.74-0.39,185.6-0.58c60.74-0.19,121.55,0.25,182.25-2.38c33.65-1.45,67.28-3.91,100.71-8.15
			c17.07-2.16,34.09-4.67,51.02-7.77c16.37-2.99,32.62-6.13,47.49-13.96c6.54-3.44,9-12.21,6.14-18.73
			c-3.16-7.19-10.14-10.09-17.7-8.68c-49.12,9.15-100.32,7.8-150.5,7.61c-52.29-0.2-104.58-0.41-156.86-0.61
			c-103.66-0.41-207.34-0.17-311-1.42c-58-0.7-116.03-2.54-173.8-8.03c-6.08-0.58-13.29,5.04-14.46,11.01
			c-2.87,14.67,6.34,25.27,19.84,29.55c11.6,3.67,25.3,2.31,37.31,2.55c27.54,0.55,55.09,0.75,82.63,0.7
			c54.44-0.09,108.87-1.11,163.3-2.26c109.2-2.31,218.59-4.12,327.28-15.77c60.39-6.47,120.79-15.07,181.68-13.49
			c-1.33-9.82-2.66-19.64-3.99-29.46c-100.21,25.45-203.12,31.35-306.51,31.88c-52.23,0.27-104.46-0.83-156.68-1.51
			c-51.77-0.68-103.46-0.14-155.22,0.54c-56.64,0.75-112.41-0.39-166.32-17.94c-7.47-2.43-16.71,2.83-18.45,10.48
			C99.34,898.99,103.7,906.61,111.69,909.21L111.69,909.21z"/>
	</g>
</g>
<g>
	<g>
		<path class="st0" d="M138.35,937.36c9.65,0,9.67-15,0-15C128.7,922.36,128.69,937.36,138.35,937.36L138.35,937.36z"/>
	</g>
</g>
<g>
	<g>
		<path class="st0" d="M155,941.22c101.58,22.84,206.12,28.51,309.96,26.02c103.46-2.48,206.51-12.6,309.65-20.33
			c28.57-2.14,57.42-3.02,85.76-7.42c13.75-2.14,26.73-5.97,39.47-11.59c15.62-6.9,32.84-19.02,31.76-38.31
			c-0.63-11.26-8.08-20.56-19.51-22.1c-10.05-1.35-22.91,5.05-24.69,16.12c-0.19,1.18-0.4,2.33-0.73,3.48
			c-1.31,4.64-0.01-0.84,0.49-0.78c-0.14-0.02-1.66,2.83-1.78,3.05c-1.18,2.22,3.32-3.29,0.45-0.63c-0.86,0.8-1.8,1.65-2.57,2.52
			c-1.65,1.89,4.45-2.77,0.55-0.39c-1.95,1.19-4.55,2.18-6.34,3.55c1.25-0.96,4.14-1.47,1.01-0.58c-1.73,0.49-3.41,1.03-5.16,1.42
			c-0.44,0.1-3.21,0.96-3.5,0.69c2.74-0.32,3.25-0.38,1.55-0.19c-0.59,0.07-1.19,0.13-1.79,0.18c-6.29,0.58-12.61,0.53-18.92,0.48
			c-9.49-0.08-19.53,7.01-21.7,16.52c-2.29,10.05,1.63,19.82,10.34,25.41c9.2,5.9,19.34,5.42,29.61,3.62
			c0.68-0.12,3.3-1.1,3.94-0.73c-3.09,0.3-3.85,0.42-2.29,0.36c1.79-0.01,0.79-0.15-3-0.42c-1.02-0.46-2.04-0.91-3.07-1.37
			c2.02,1.2,1.5,0.71-1.55-1.46c0.27,0.27,0.54,0.55,0.8,0.82c-6.53-7.31-6.42-15.52,0.34-24.64c11.78,9.09,23.56,18.18,35.34,27.27
			c1.14-2.06,2.44-3.97,3.71-5.94c1.43-2.23-3.02,3.17-0.13,0.29c0.92-0.91,1.75-1.91,2.68-2.82c0.74-0.73,1.5-1.43,2.28-2.12
			c3.26-2.86,0.86,0.27-0.29,0.13c1.22,0.15,5.39-3.39,6.64-4.06c-11.02-4.48-22.03-8.96-33.05-13.45c1.26,4.87,0.25-5.18-0.09-0.24
			c0.15-1.04,0.3-2.08,0.45-3.11c-0.19,0.96-0.45,1.89-0.78,2.81c-0.29-0.08,2.65-5.12,0.4-1.34c-2.54,4.25,3.64-3.07-0.07,0.27
			c-0.37,0.33-4.09,3.4-1.08,1.24c3.17-2.28-1.43,0.67-1.72,0.87c-4.23,2.96,4.32-1.1-0.63,0.4c-1.59,0.48-3.14,1.03-4.75,1.45
			c-2.69,0.7-5.43,1.22-8.18,1.67c-1.64,0.27-3.29,0.53-4.95,0.73c5.56-0.68-0.86,0.08-1.66,0.18c-7,0.85-14.02,1.55-21.05,2.12
			c-27.77,2.25-55.68,2.43-83.52,1.54c-56.34-1.8-112.43-7.95-168.74-10.45c-27.63-1.22-55.32-1.56-82.95-0.07
			c-28.92,1.56-57.69,5.07-86.47,8.22c-55.97,6.11-111.76,8.39-167.89,2.87c-7.61-0.75-15.28-1.46-22.84-2.62
			c5.56,0.86-0.79-0.12-1.61-0.23c-1.9-0.27-3.79-0.55-5.69-0.83c-3.79-0.57-7.57-1.17-11.35-1.8c-15.75-2.63-31.41-5.78-46.94-9.47
			c-6.39-1.52-12.77-3.11-19.08-4.95c-3.06-0.89-6.11-1.84-9.13-2.87c-2.56-0.87-6.73-1.68-8.94-3.31c0.82,0.35,1.64,0.7,2.45,1.05
			c-0.97-0.42-1.93-0.84-2.88-1.28c-1.43-0.66-2.85-1.34-4.25-2.04c-2.79-1.41-5.52-2.93-8.18-4.58c-1.32-0.82-2.62-1.68-3.9-2.56
			c-0.85-0.59-1.69-1.2-2.52-1.82c0.7,0.54,1.4,1.07,2.1,1.61c-2.71-0.83-6.1-5.42-8.02-7.44c-7.3,12.54-14.59,25.07-21.89,37.61
			c98.03,31.13,200.87,47.87,303.71,49.66c28.38,0.5,56.78-0.2,85.11-2.01c11.72-0.75,23.07-9.81,22.5-22.5
			c-0.52-11.55-9.92-23.31-22.5-22.5c-50.37,3.23-100.94,2.84-151.25-1.25c-12.26-1-24.5-2.21-36.72-3.64
			c-2.82-0.33-5.64-0.67-8.45-1.02c-1.88-0.23-3.75-0.48-5.63-0.72c-1-0.13-4.43-0.55,0.35,0.05c-6.26-0.78-12.5-1.76-18.73-2.72
			c-24.93-3.86-49.73-8.62-74.32-14.27c-27.67-6.36-55.05-13.88-82.11-22.47c-9.1-2.89-20.92,1.83-25.41,10.34
			c-4.76,9.02-3.62,19.79,3.52,27.27c18.86,19.75,44.89,30.11,70.81,36.93c28.59,7.52,57.77,12.62,87.06,16.52
			c58.51,7.78,117.26,7.71,175.93,1.76c29.79-3.02,59.5-6.9,89.38-9.1c29.31-2.16,58.7-2.26,88.06-1.17
			c58.58,2.18,116.9,8.76,175.5,10.74c32.64,1.1,65.38,0.76,97.88-2.62c17.33-1.8,35.91-2.95,51.49-11.54
			c18.11-9.98,28.84-30.93,23.57-51.32c-3.76-14.53-20.49-20.15-33.05-13.45c-12.96,6.91-23.92,17.83-31.04,30.67
			c-5.47,9.87-3.13,22.13,5.8,29.03c8.29,6.41,22.2,6.76,29.54-1.76c6.44-7.47,9.78-16.48,7.02-26.37
			c-2.2-7.89-8.16-14.69-15.18-18.73c-6.95-3.99-14.5-5.1-22.3-4.06c-1.09,0.15-8.3,2.07-9.27,1.52c0.29,0.16,4.8,0.17,1.36-0.31
			c1.6,0,3.07,0.41,4.4,1.23c1.75,0.93,1.78,0.88,0.08-0.14c-3.79,13.98-7.57,27.95-11.36,41.93c17.49,0.15,34.89-0.88,50.84-8.76
			c14.11-6.98,26.73-21.23,29.29-37.08c-14.73-1.99-29.46-3.99-44.2-5.98c0.03,0.48,0.05,0.96,0.08,1.44
			c-0.24-3.42,0.69-6.23,2.81-8.43c1.08-3.36,0.36,1.23-1.27,1.05c-0.01,0,3.88-2.39,0.84-0.84c-1.25,0.63-2.42,1.46-3.65,2.14
			c-2.21,1.23-4.49,2.3-6.75,3.41c-4.91,2.41,3.23-1.09-0.03,0.01c-1.85,0.63-3.66,1.37-5.52,1.99c-4.8,1.59-9.71,2.87-14.65,3.92
			c-2.49,0.53-5,1-7.51,1.42c-1.4,0.24-2.81,0.44-4.21,0.66c-5.79,0.91,5.03-0.55-0.8,0.1c-23.68,2.63-47.55,3.68-71.3,5.46
			c-49.53,3.71-99.01,7.97-148.54,11.67c-99.19,7.41-198.88,12.69-298.28,6.51c-13.68-0.85-27.35-1.92-41-3.23
			c-6.66-0.64-13.32-1.34-19.97-2.1c-3.8-0.43-7.6-0.89-11.4-1.36c-1.27-0.16-2.53-0.32-3.8-0.48c-1.9-0.24-5.65-0.72-1.61-0.2
			c-27.88-3.6-55.63-8.73-83.05-14.9c-11.46-2.58-24.89,3.48-27.68,15.71C136.69,924.96,142.72,938.45,155,941.22L155,941.22z"/>
	</g>
</g>
<g>
	<g>
		<path class="st0" d="M340.39,228.86c-0.58,2.47-1.16,4.95-1.75,7.42c9.82,1.33,19.64,2.66,29.46,3.99
			c7.33-62.73,10.84-125.86,10.53-189.02c-0.04-7.84-6.87-15.36-15-15c-8.09,0.36-15.04,6.59-15,15
			c0.32,63.16-3.2,126.29-10.53,189.02c-0.86,7.38,6.37,13.84,13.01,14.73c7.09,0.95,14.74-3.44,16.46-10.74
			c0.58-2.47,1.16-4.95,1.75-7.42c1.79-7.62-2.37-16.61-10.48-18.45C351.17,216.64,342.32,220.69,340.39,228.86L340.39,228.86z"/>
	</g>
</g>
<g class="st1">
	<g class="st2">
		<path class="st0" d="M378.6,232.38c7.35-57.7,9.44-115.97,6.25-174.05c-0.43-7.82-6.59-15.38-15-15c-7.76,0.35-15.46,6.61-15,15
			c3.19,58.08,1.1,116.35-6.25,174.05c-1,7.82,7.61,15.33,15,15C372.58,246.98,377.53,240.76,378.6,232.38L378.6,232.38z"/>
	</g>
</g>
</svg>
